<svg xmlns="http://www.w3.org/2000/svg" viewBox="0 0 1215.9407 389.2327"><title stroke="none" fill="#000000" stroke-width="1px">Logo-New-Color-White-Small</title><path d="M0,0S37.6062,61.8682,236.9593,92.6c0,0,63.4856,12.5354,86.13,73.5949,0,0-26.2839-31.945-103.518-27.497S45.6935,96.6438,0,0Z" style="" stroke="none" fill="#ffffff" stroke-width="1px"></path><path d="M70.7643,119.3539s33.7647,35.5843,182.9762,29.3166c0,0,48.3219,0,84.3106,39.628,0,0-15.366-7.2786-65.3053-3.0328,0,0-13.3442.4044-39.4258,4.8525C233.32,190.1182,131.4194,208.5169,70.7643,119.3539Z" style="" stroke="none" fill="#016460" stroke-width="1px"></path><path d="M344.639,209.4965s-8.8137-8.2374-28.0344.1648c0,0-36.42,17.7931-45.4662,20.5311,0,0-9.31,4.9067-24.3713,5.7544,0,0-34.0307,2.7675-68.3976-22.3121,0,0,9.2486,5.8813,53.9082-.4134,0,0,26.6036-4.0559,51.7127-13.4382C283.99,199.7831,323.2687,185.6381,344.639,209.4965Z" style="" stroke="none" fill="#ffffff" stroke-width="1px"></path><path d="M306.2356,229.5718a98.4054,98.4054,0,1,1-185.2184-47.335A157.0349,157.0349,0,0,1,95.2,161.5211a135.7154,135.7154,0,0,0-17.56,67.0594c0,73.8091,58.2953,133.6432,130.2059,133.6432S338.0511,302.39,338.0511,228.5805q0-4.9569-.3519-9.8238a49.6594,49.6594,0,0,0-14.0028,3.3724S315.9126,225.5131,306.2356,229.5718Z" style="" stroke="none" fill="#ffffff" stroke-width="1px"></path><path d="M258.1788,240.9432a52.0113,52.0113,0,1,1-95.6752-38.6384,134.1808,134.1808,0,0,1-25.3329-12.1161,80.0369,80.0369,0,1,0,150.6966,39.3945c-10.2226,4.2612-22.0875,9.0327-26.6347,10.1919C261.2326,239.7751,260.1491,240.2793,258.1788,240.9432Z" style="" stroke="none" fill="#016460" stroke-width="1px"></path><path d="M463.5574,118.7q-45.3493,0-76.0488,35.53h-.6235V126.179l-1.2466-1.2461H363.198q-1.4025,0-1.87,3.7392v256.82q0,3.1158,1.87,3.74h23.064l1.2466-1.2461V353.7024l-.6235-59.2187h.6235q28.6713,35.5313,75.4253,35.5312h1.2466a103.9154,103.9154,0,0,0,46.7514-11.2207q56.1014-31.6333,56.1016-93.502v-2.4941q0-25.5557-13.7139-50.4912Q521.9962,118.701,463.5574,118.7Zm64.2051,148.98q-24.3113,37.4-64.2051,37.4-21.6628,0-42.3882-13.7129-34.2853-27.4261-34.2841-67.3222,0-20.7246,13.09-43.6348,25.2458-36.7764,62.3349-36.7773,28.829,0,51.7383,20.57,25.5564,30.0776,25.5572,60.4648Q539.6058,246.7991,527.7625,267.68Z" style="" stroke="none" fill="#ffffff" stroke-width="1px"></path><path d="M684.2229,119.1663q-36.6225,0-65.4516,18.0771-42.39,35.3775-42.3877,84.1524a117.1228,117.1228,0,0,0,17.4536,61.7119q33.6606,47.376,86.6455,47.375a102.3967,102.3967,0,0,0,41.7647-8.7276q38.9574-18.854,54.2314-58.5947v-.623l-1.2471-1.2471H747.805q-22.9087,44.26-68.5684,44.2578-25.8706,0-47.375-16.83-27.43-26.9589-27.4272-54.2314c0-1.2471.4135-1.87,1.2465-1.87H782.0892l1.87-1.2471q0-21.3486-7.4805-45.5049Q748.27,119.1673,684.2229,119.1663Zm68.5684,91.01H606.304l-.6231-.624q0-6.23,3.1167-14.96,19.4789-51.1128,71.0621-51.1153,33.5039,0,54.8545,24.3106,17.9193,24.0014,19.3242,41.1416Z" style="" stroke="none" fill="#ffffff" stroke-width="1px"></path><path d="M975.3274,124.4651q-1.4017,0-1.87,3.74v24.3106h-.623q-29.921-34.2817-72.9326-34.2842h-.6231q-35.9985,0-64.2051,20.57-41.7656,35.8448-41.7646,85.3994,0,26.6471,13.7138,53.6074Q840.37,329.55,896.7854,329.5471h.6231q47.997,0,75.4258-33.6611h.623v46.1279l-.623,44.8819,1.87,1.87h23.0635l1.247-1.2471V125.7112l-1.247-1.2461Zm-1.87,101.6055q0,20.4184-12.4668,41.1416-24.7778,37.4-63.582,37.4013-21.1949,0-41.1406-12.4677-34.91-26.0231-34.9082-67.3213,0-27.27,18.7011-53.6084,22.2832-28.05,57.9717-28.0508,19.4781,0,39.8936,12.4668,35.5313,28.3652,35.5312,65.4521Z" style="" stroke="none" fill="#ffffff" stroke-width="1px"></path><path d="M1037.6624,232.6165h176.4082l1.87-1.2471q0-21.3486-7.4805-45.5049-13.3517-31.5692-34.7363-48.1883c-13.4231-16.2058-33.91-23.7407-33.91-23.7407-28.448-10.0735-54.3316-25.8229-54.3316-25.8229-43.0788-26.8821-46.8017-38.647-46.8017-38.647,11.5,46.5,42.8584,68.734,42.8584,68.734,2.0207,1.51,3.995,2.8469,5.895,4.0356a115.8372,115.8372,0,0,0-36.6817,15.0082q-42.39,35.3775-42.3877,84.1524a117.1234,117.1234,0,0,0,17.4541,61.7119q33.6608,47.376,86.6456,47.375a102.3959,102.3959,0,0,0,41.7646-8.7276q38.9575-18.854,54.2314-58.5947v-.623l-1.247-1.2471h-27.4268q-22.9086,44.26-68.5683,44.2578-25.8707,0-47.375-16.83-27.4293-26.9589-27.4278-54.2314Q1036.4153,232.616,1037.6624,232.6165Zm3.1162-38.0244q19.4794-51.1128,71.0625-51.1153,33.5038,0,54.8545,24.3106,17.9195,24.0014,19.3242,41.1416l-1.2471,1.247H1038.2854l-.623-.624Q1037.6624,203.3221,1040.7786,194.5921Z" style="" stroke="none" fill="#ffffff" stroke-width="1px"></path></svg>